<svg version="1.0"
 width="122.000000pt" height="236.000000pt" viewBox="0 0 122.000000 236.000000"
 preserveAspectRatio="xMidYMid meet">
<g transform="translate(0.000000,236.000000) scale(0.100000,-0.100000)"
fill="#000000" stroke="none">
<path d="M921 2187 c0 -14 -67 -211 -136 -438 -70 -228 -130 -418 -135 -422
-4 -4 -87 30 -185 78 -98 47 -182 85 -186 85 -5 0 -9 -304 -9 -681 0 -516 3
-680 12 -677 6 2 24 47 40 99 148 482 230 748 238 766 9 22 13 21 186 -62 97
-47 183 -85 190 -85 12 0 14 109 14 674 0 654 -3 731 -29 663z m-2 -716 c1
-313 -2 -572 -7 -574 0 0 -59 19 -122 50 -173 82 -198 93 -215 93 -19 0 -52
-52 -66 -105 -6 -22 -37 -123 -69 -225 -32 -102 -74 -233 -91 -292 -18 -59
-37 -104 -41 -102 -4 3 -8 257 -8 566 l0 560 24 -6 c13 -3 84 -35 157 -71 74
-36 143 -65 155 -65 37 0 56 34 95 170 7 25 13 47 14 50 0 3 11 37 23 75 12
39 31 104 43 145 11 41 25 79 30 85 5 5 9 16 9 25 0 22 54 190 61 190 4 0 7
-256 8 -569z"/>
</g>
</svg>
